<?xml version="1.0" standalone="no"?>
<!DOCTYPE svg PUBLIC "-//W3C//DTD SVG 1.1//EN" "http://www.w3.org/Graphics/SVG/1.1/DTD/svg11.dtd">
<svg width="100%" height="100%" viewBox="0 0 47 48" version="1.1" xmlns="http://www.w3.org/2000/svg" xmlns:xlink="http://www.w3.org/1999/xlink" xml:space="preserve" style="fill-rule:evenodd;clip-rule:evenodd;stroke-linejoin:round;stroke-miterlimit:1.41421;">
    <g transform="matrix(1,0,0,1,-5,-3)">
        <g transform="matrix(6.12323e-17,1,-1,6.12323e-17,56.1722,-0.21554)">
            <path d="M27.496,5.051C15.036,5.072 4.952,15.157 4.93,27.619C4.952,40.082 15.036,50.167 27.496,50.186C39.961,50.167 50.045,40.081 50.064,27.617C50.045,15.155 39.961,5.072 27.496,5.051Z" style="fill:black;"/>
        </g>
        <g transform="matrix(0.522962,-0.553559,0.553559,0.522962,-2.23342,27.7306)">
            <path d="M7.927,27.907C7.936,26.81 8.038,25.715 8.231,24.635C8.554,22.829 9.135,21.07 9.952,19.426C10.926,17.468 12.232,15.678 13.796,14.151C15.362,12.622 17.185,11.358 19.168,10.432C20.835,9.653 22.613,9.113 24.432,8.835C25,8.748 25.572,8.687 26.146,8.65C26.478,8.629 26.81,8.619 27.142,8.612C27.393,8.611 27.393,8.611 27.644,8.612C27.976,8.619 28.308,8.629 28.64,8.65C29.214,8.687 29.785,8.748 30.353,8.835C32.173,9.113 33.951,9.653 35.618,10.432C37.601,11.358 39.424,12.622 40.989,14.151C42.554,15.678 43.86,17.468 44.833,19.426C45.65,21.07 46.232,22.829 46.555,24.636C46.918,26.665 46.957,28.753 46.671,30.796C46.393,32.777 45.806,34.714 44.937,36.516C43.919,38.627 42.518,40.549 40.822,42.166C39.065,43.841 36.997,45.184 34.75,46.103C33.781,46.499 32.782,46.815 31.763,47.048L31.763,41.871C32.133,41.754 32.498,41.622 32.857,41.475C34.528,40.792 36.065,39.792 37.371,38.547C38.633,37.344 39.676,35.915 40.433,34.344C41.078,33.008 41.513,31.572 41.719,30.102C41.94,28.522 41.901,26.905 41.6,25.338C41.344,24.003 40.897,22.706 40.277,21.496C39.535,20.049 38.548,18.73 37.371,17.607C36.235,16.524 34.924,15.626 33.502,14.962C32.265,14.384 30.946,13.984 29.597,13.778C28.929,13.676 28.256,13.625 27.58,13.612C27.393,13.611 27.393,13.611 27.205,13.612C26.53,13.625 25.857,13.676 25.189,13.778C23.839,13.984 22.521,14.384 21.284,14.962C19.862,15.626 18.551,16.524 17.415,17.607C16.238,18.73 15.25,20.049 14.509,21.496C13.889,22.706 13.442,24.003 13.185,25.338C13.023,26.184 12.937,27.045 12.927,27.907L7.927,27.907Z" style="fill:white;"/>
        </g>
        <g transform="matrix(-0.905763,-0.855699,0.630174,-0.667043,27.8295,77.7826)">
            <path d="M18.45,36.662L22.717,45.197L14.182,45.197L18.45,36.662Z" style="fill:white;"/>
        </g>
    </g>
</svg>
